<svg preserveAspectRatio="none" width="100%" height="100%" overflow="visible" style="display: block;" viewBox="0 0 28 28" fill="none" xmlns="http://www.w3.org/2000/svg">
<g id="today">
<path id="Union" d="M18.5 3C19.3284 3 20 3.67157 20 4.5V6.00586C21.3502 6.02405 22.1611 6.10165 22.8164 6.43555C23.5689 6.81902 24.181 7.43109 24.5645 8.18359C25.0004 9.03924 25 10.1602 25 12.4004V17.5996C25 19.8398 25.0004 20.9608 24.5645 21.8164C24.181 22.5689 23.5689 23.181 22.8164 23.5645C21.9608 24.0004 20.8398 24 18.5996 24H9.40039C7.16018 24 6.03924 24.0004 5.18359 23.5645C4.43109 23.181 3.81902 22.5689 3.43555 21.8164C2.99957 20.9608 3 19.8398 3 17.5996V12.4004C3 10.1602 2.99957 9.03924 3.43555 8.18359C3.81902 7.43109 4.43109 6.81902 5.18359 6.43555C5.83891 6.10165 6.64984 6.02405 8 6.00586V4.5C8 3.67157 8.67157 3 9.5 3C10.3284 3 11 3.67157 11 4.5V6H17V4.5C17 3.67157 17.6716 3 18.5 3ZM9.25 16C8.55964 16 8 16.5596 8 17.25C8 17.9404 8.55964 18.5 9.25 18.5H15.75C16.4404 18.5 17 17.9404 17 17.25C17 16.5596 16.4404 16 15.75 16H9.25ZM9.25 10.5C8.55964 10.5 8 11.0596 8 11.75C8 12.4404 8.55964 13 9.25 13H19.75C20.4403 12.9999 21 12.4403 21 11.75C21 11.0597 20.4403 10.5001 19.75 10.5H9.25Z" fill="var(--fill-0, #048DDB)"/>
</g>
</svg>
