<svg preserveAspectRatio="none" width="100%" height="100%" overflow="visible" style="display: block;" viewBox="0 0 28 28" fill="none" xmlns="http://www.w3.org/2000/svg">
<g id="move">
<path id="Union" d="M19.333 5C19.9521 5 20.2621 5.00039 20.5205 5.0459C21.7625 5.2649 22.7351 6.23746 22.9541 7.47949C22.9996 7.7379 23 8.04786 23 8.66699V8.95605C23.09 8.95613 23.1811 8.96009 23.2725 8.97266C23.5153 9.00606 23.8199 9.12759 24.4287 9.37109C24.7304 9.49179 24.8811 9.55267 25.0098 9.62793C25.5322 9.93352 25.8878 10.4591 25.9775 11.0576C25.9996 11.205 26 11.3675 26 11.6924V16.3076C26 16.6325 25.9996 16.795 25.9775 16.9424C25.8878 17.5409 25.5322 18.0665 25.0098 18.3721C24.8811 18.4473 24.7304 18.5082 24.4287 18.6289C23.8199 18.8724 23.5153 18.9939 23.2725 19.0273C23.1811 19.0399 23.09 19.0439 23 19.0439V19.333C23 19.9521 22.9996 20.2621 22.9541 20.5205C22.7351 21.7625 21.7625 22.7351 20.5205 22.9541C20.2621 22.9996 19.9521 23 19.333 23C19.0235 23 18.8685 23.0003 18.7393 22.9775C18.1184 22.868 17.632 22.3816 17.5225 21.7607C17.4997 21.6315 17.5 21.4765 17.5 21.167V16H10.5V21.167C10.5 21.4765 10.5003 21.6315 10.4775 21.7607C10.368 22.3816 9.88159 22.868 9.26074 22.9775C9.13155 23.0003 8.97649 23 8.66699 23C8.04786 23 7.7379 22.9996 7.47949 22.9541C6.23746 22.7351 5.2649 21.7625 5.0459 20.5205C5.00039 20.2621 5 19.9521 5 19.333V19.0439C4.91001 19.0439 4.81895 19.0399 4.72754 19.0273C4.48471 18.9939 4.18005 18.8724 3.57129 18.6289C3.26955 18.5082 3.11888 18.4473 2.99023 18.3721C2.46784 18.0665 2.11218 17.5409 2.02246 16.9424C2.00037 16.795 2 16.6325 2 16.3076V11.6924C2 11.3675 2.00037 11.205 2.02246 11.0576C2.11218 10.4591 2.46784 9.93352 2.99023 9.62793C3.11888 9.55267 3.26955 9.49179 3.57129 9.37109C4.18005 9.12759 4.48471 9.00606 4.72754 8.97266C4.81895 8.96009 4.91001 8.95613 5 8.95605V8.66699C5 8.04787 5.00039 7.7379 5.0459 7.47949C5.2649 6.23746 6.23746 5.2649 7.47949 5.0459C7.7379 5.00039 8.04786 5 8.66699 5C8.97649 5 9.13155 4.99968 9.26074 5.02246C9.88159 5.13202 10.368 5.61841 10.4775 6.23926C10.5003 6.36845 10.5 6.52351 10.5 6.83301V12H17.5V6.83301C17.5 6.52351 17.4997 6.36845 17.5225 6.23926C17.632 5.61841 18.1184 5.13202 18.7393 5.02246C18.8685 4.99968 19.0235 5 19.333 5Z" fill="var(--fill-0, #333333)"/>
</g>
</svg>
