<svg preserveAspectRatio="none" width="100%" height="100%" overflow="visible" style="display: block;" viewBox="0 0 24 24" fill="none" xmlns="http://www.w3.org/2000/svg">
<g id="Fork-spoon">
<path id="Vector" d="M5.05148 20.4643L5.94976 2.49875C5.97773 1.93927 6.43951 1.5 6.99969 1.5C7.55988 1.5 8.02166 1.93927 8.04963 2.49875L8.94791 20.4643C8.98029 21.1118 8.68879 21.7332 8.17008 22.1222C7.47652 22.6424 6.52287 22.6424 5.82931 22.1222C5.3106 21.7332 5.0191 21.1118 5.05148 20.4643Z" fill="var(--fill-0, #0588D3)"/>
<path id="Vector_2" d="M3.4998 3L3.49959 7.34615C3.49959 9.5 6.9997 9.5 6.9997 9.5C6.9997 9.5 10.4996 9.5 10.4996 7.34615L10.4998 3" stroke="var(--stroke-0, #0588D3)" stroke-width="2" stroke-linecap="round" stroke-linejoin="round"/>
<path id="Vector_3" d="M15.081 20.4468L15.9233 9.49731C15.9666 8.9347 16.4357 8.50026 17 8.50026C17.5643 8.50026 18.0334 8.9347 18.0767 9.49731L18.919 20.4468C18.9694 21.1029 18.6812 21.7394 18.1548 22.1342C17.4705 22.6474 16.5295 22.6474 15.8452 22.1342C15.3188 21.7394 15.0306 21.1029 15.081 20.4468Z" fill="var(--fill-0, #0588D3)"/>
<path id="Vector_4" d="M20.5 6.49974C20.5 8.84696 18.6572 10.4997 17.0004 10.4997C15.3435 10.4997 13.5 8.84696 13.5 6.49974C13.5 4.15253 15 1.99974 17.0004 1.99974C19 1.99974 20.5 4.15253 20.5 6.49974Z" fill="var(--fill-0, #0588D3)"/>
</g>
</svg>
