<svg preserveAspectRatio="none" width="100%" height="100%" overflow="visible" style="display: block;" viewBox="0 0 28 28" fill="none" xmlns="http://www.w3.org/2000/svg">
<g id="track">
<path id="Union" d="M5.75019 10C6.44758 10 6.79646 9.99992 7.08027 10.0859C7.71936 10.2798 8.22028 10.7799 8.41425 11.4189C8.50037 11.7028 8.50019 12.0522 8.50019 12.75V19.75C8.50019 20.4478 8.50037 20.7972 8.41425 21.0811C8.22028 21.7201 7.71936 22.2202 7.08027 22.4141C6.79646 22.5001 6.44758 22.5 5.75019 22.5C5.05241 22.5 4.70303 22.5002 4.41914 22.4141C3.78019 22.2202 3.2801 21.72 3.08613 21.0811C3.00001 20.7972 3.00019 20.4478 3.00019 19.75V12.75C3.00019 12.0522 3.00001 11.7028 3.08613 11.4189C3.2801 10.78 3.78019 10.2798 4.41914 10.0859C4.70303 9.99982 5.05241 10 5.75019 10ZM14.0002 4C14.9319 4 15.3983 4.00011 15.7658 4.15234C16.2556 4.35535 16.6449 4.74455 16.8478 5.23438C17.0001 5.60192 17.0002 6.06812 17.0002 7V19.5C17.0002 20.4319 17.0001 20.8981 16.8478 21.2656C16.6449 21.7555 16.2556 22.1446 15.7658 22.3477C15.3983 22.4999 14.9319 22.5 14.0002 22.5C13.0683 22.5 12.6021 22.4999 12.2346 22.3477C11.7447 22.1447 11.3555 21.7555 11.1525 21.2656C11.0003 20.8981 11.0002 20.4319 11.0002 19.5V7C11.0002 6.06812 11.0003 5.60192 11.1525 5.23438C11.3555 4.7445 11.7447 4.3553 12.2346 4.15234C12.6021 4.0001 13.0683 4 14.0002 4ZM22.2502 8C22.9476 8 23.2965 7.99993 23.5803 8.08594C24.2194 8.2798 24.7203 8.77991 24.9143 9.41895C25.0004 9.70284 25.0002 10.0522 25.0002 10.75V19.75C25.0002 20.4478 25.0004 20.7972 24.9143 21.0811C24.7203 21.7201 24.2194 22.2202 23.5803 22.4141C23.2965 22.5001 22.9476 22.5 22.2502 22.5C21.5524 22.5 21.203 22.5002 20.9191 22.4141C20.2802 22.2202 19.7801 21.72 19.5861 21.0811C19.5 20.7972 19.5002 20.4478 19.5002 19.75V10.75C19.5002 10.0522 19.5 9.70284 19.5861 9.41895C19.7801 8.78003 20.2802 8.27984 20.9191 8.08594C21.203 7.99982 21.5524 8 22.2502 8Z" fill="var(--fill-0, #333333)"/>
</g>
</svg>
