<svg preserveAspectRatio="none" width="100%" height="100%" overflow="visible" style="display: block;" viewBox="0 0 28.6127 35.1689" fill="none" xmlns="http://www.w3.org/2000/svg">
<g id="Group 2090052609">
<path id="Vector 463" d="M6.43316 10.5939C6.65532 10.4712 6.86914 10.3524 7.02946 10.2609C7.1915 10.1667 7.29721 10.0918 7.36642 9.98794C7.43563 9.88413 7.46414 9.75772 7.48875 9.57193C7.51163 9.38871 7.53905 9.14565 7.56684 8.8934C7.56684 8.8934 7.56684 8.8934 7.56684 8.8934C7.5928 8.63779 7.60617 8.40107 7.60694 8.18325C7.61002 7.31196 7.41157 6.74298 7.01157 6.47631C5.61157 5.54298 3.93725 5.02112 1.9886 4.91076C1.84941 4.90287 1.70883 4.89709 1.56684 4.8934C1.33086 4.88898 1.09359 4.90119 0.879183 4.96939C0.664635 5.0378 0.489277 5.15847 0.376335 5.32788C0.263392 5.4973 0.21945 5.70558 0.238821 5.92993C0.258331 6.15408 0.338324 6.37779 0.433162 6.59392C0.433162 6.59392 0.433162 6.59392 0.433162 6.59392C0.491175 6.72357 0.550585 6.85111 0.611397 6.97656C1.46275 8.73286 2.58843 10.0777 3.98843 11.011C4.38843 11.2777 4.98997 11.242 5.79306 10.9041C5.99383 10.8196 6.2072 10.7162 6.43316 10.5939Z" fill="var(--stroke-0, #476587)"/>
<path id="Vector 465" d="M10.0782 7.34318C10.3334 7.3472 10.5805 7.34994 10.7637 7.35149C10.9499 7.35162 11.0745 7.34231 11.1831 7.29122C11.2917 7.24014 11.3783 7.15012 11.4969 7.0066C11.6125 6.86448 11.768 6.67238 11.9276 6.47323C11.9276 6.47323 11.9276 6.47323 11.9276 6.47323C12.0848 6.27383 12.2214 6.08409 12.3374 5.90402C12.8017 5.18373 12.9371 4.61811 12.7438 4.20714C12.0672 2.76874 10.943 1.54085 9.3714 0.523472C9.25914 0.450801 9.14459 0.379207 9.02777 0.308684C8.82484 0.188269 8.61456 0.0801562 8.39746 0.0296334C8.18008 -0.0207523 7.97099 -0.00815392 7.78957 0.0771867C7.60815 0.162527 7.46513 0.315561 7.36534 0.515151C7.26583 0.714604 7.21503 0.945532 7.1784 1.17864C7.1784 1.17864 7.1784 1.17864 7.1784 1.17864C7.15824 1.3136 7.14036 1.44749 7.12476 1.5803C6.90639 3.43971 7.13552 5.08861 7.81215 6.52701C8.00547 6.93798 8.52757 7.19429 9.37844 7.29594C9.59116 7.32136 9.82443 7.3371 10.0782 7.34318Z" fill="var(--stroke-0, #476587)"/>
<ellipse id="Ellipse 499" cx="14.3063" cy="18.8188" rx="14.3063" ry="16.3501" fill="var(--fill-0, white)"/>
<ellipse id="Ellipse 501" cx="16.3501" cy="16.0938" rx="9.53756" ry="10.9001" fill="var(--fill-0, #1A2C40)"/>
</g>
</svg>
