<svg preserveAspectRatio="none" width="100%" height="100%" overflow="visible" style="display: block;" viewBox="0 0 29.0693 34.1844" fill="none" xmlns="http://www.w3.org/2000/svg">
<g id="Group 2090052608">
<path id="Vector 466" d="M23.4582 11.4562C23.2266 11.3509 23.0032 11.2485 22.8366 11.1705C22.668 11.0901 22.5579 11.0258 22.4811 10.9301C22.4044 10.8345 22.3654 10.7132 22.3233 10.5311C22.2832 10.3515 22.2315 10.1113 22.1788 9.86242C22.1788 9.86242 22.1788 9.86242 22.1788 9.86242C22.128 9.612 22.0914 9.37928 22.0691 9.16428C21.9796 8.30427 22.1176 7.72759 22.483 7.43425C23.7619 6.40756 25.3505 5.76652 27.2486 5.51113C27.3842 5.49289 27.5214 5.47662 27.6601 5.46231C27.895 5.43984 28.132 5.43283 28.3505 5.48225C28.5692 5.5319 28.7532 5.63591 28.8798 5.79361C29.0064 5.9513 29.0682 6.15342 29.0693 6.3777C29.0703 6.60175 29.0122 6.83159 28.9395 7.05608C28.9395 7.05608 28.9395 7.05608 28.9395 7.05608C28.8955 7.18844 28.85 7.31884 28.8029 7.44727C28.1431 9.24526 27.1737 10.6576 25.8947 11.6843C25.5293 11.9776 24.9364 11.9876 24.1161 11.7143C23.911 11.646 23.6917 11.5599 23.4582 11.4562Z" fill="var(--stroke-0, #476587)"/>
<path id="Vector 467" d="M20.1173 6.82235C19.8666 6.77462 19.624 6.7273 19.4443 6.69173C19.2619 6.65418 19.1419 6.61986 19.0458 6.54784C18.9498 6.47583 18.8832 6.37015 18.7961 6.20559C18.7117 6.04301 18.5983 5.82343 18.4823 5.59609C18.4823 5.59609 18.4823 5.59609 18.4823 5.59609C18.3688 5.36901 18.2734 5.15555 18.1962 4.95571C17.8873 4.15637 17.8692 3.57504 18.1417 3.2117C19.0954 1.94003 20.4448 0.965077 22.1898 0.28685C22.3145 0.238404 22.4411 0.191475 22.5698 0.146057C22.7929 0.0692068 23.0207 0.00589373 23.2436 0.000356483C23.4667 -0.00498741 23.6689 0.0496686 23.8292 0.169962C23.9896 0.290256 24.0987 0.469069 24.1561 0.684727C24.2131 0.900192 24.2161 1.13662 24.2048 1.37232C24.2048 1.37232 24.2048 1.37232 24.2048 1.37232C24.1973 1.50857 24.1877 1.6433 24.1761 1.77653C24.0136 3.64165 23.4555 5.21005 22.5017 6.48172C22.2292 6.84506 21.666 6.99039 20.8122 6.91772C20.5987 6.89956 20.3671 6.86777 20.1173 6.82235Z" fill="var(--stroke-0, #476587)"/>
<ellipse id="Ellipse 500" cx="14.3063" cy="17.8343" rx="14.3063" ry="16.3501" fill="var(--fill-0, white)"/>
<ellipse id="Ellipse 502" cx="14.9878" cy="15.1093" rx="9.53756" ry="10.9001" fill="var(--fill-0, #1A2C40)"/>
</g>
</svg>
