<svg preserveAspectRatio="none" width="100%" height="100%" overflow="visible" style="display: block;" viewBox="0 0 28.6127 35.3352" fill="none" xmlns="http://www.w3.org/2000/svg">
<g id="Group 2090052628">
<path id="Vector 463 (Stroke)" d="M1.98828 5.0769C3.93692 5.18727 5.61172 5.709 7.01172 6.64233C7.4117 6.90899 7.61049 7.47815 7.60742 8.34937C7.60665 8.56711 7.59235 8.80382 7.56641 9.05933C7.53862 9.31153 7.51116 9.55483 7.48828 9.73804C7.46368 9.92383 7.43542 10.0502 7.36621 10.1541C7.297 10.2579 7.19134 10.3333 7.0293 10.4275C6.86906 10.519 6.65555 10.6379 6.43359 10.7605C6.20764 10.8828 5.99374 10.9856 5.79297 11.0701C4.98988 11.408 4.38828 11.4442 3.98828 11.1775C2.58828 10.2442 1.46269 8.89863 0.611328 7.14233C0.550655 7.01716 0.491481 6.88985 0.433594 6.7605C0.338796 6.54447 0.258811 6.32049 0.239258 6.09644C0.219887 5.87208 0.263034 5.66331 0.375977 5.4939C0.488882 5.32454 0.664453 5.20392 0.878906 5.1355C1.09318 5.06734 1.33058 5.05493 1.56641 5.05933C1.70828 5.06301 1.8492 5.06903 1.98828 5.0769Z" fill="var(--fill-0, #476587)"/>
<path id="Vector 465 (Stroke)" d="M8.39719 0.195883C8.61423 0.246394 8.82474 0.354381 9.02762 0.474762C9.14435 0.545227 9.25901 0.616755 9.37118 0.689365C10.9428 1.70674 12.0676 2.93473 12.7442 4.37312C12.9375 4.78404 12.8018 5.34993 12.3377 6.07009C12.2216 6.25014 12.0849 6.44017 11.9278 6.63954C11.7682 6.83869 11.6121 7.03055 11.4965 7.17266C11.3779 7.31615 11.2918 7.40685 11.1833 7.45794C11.0747 7.509 10.95 7.518 10.764 7.51788C10.5809 7.51633 10.3337 7.51385 10.0786 7.50984C9.82482 7.50376 9.5912 7.48729 9.3785 7.46188C8.52773 7.36024 8.00555 7.10428 7.81217 6.6934C7.13557 5.25506 6.90601 3.60605 7.12434 1.74672C7.13993 1.61396 7.15828 1.47997 7.17843 1.34506C7.21505 1.11202 7.26595 0.881089 7.3654 0.681674C7.4651 0.482278 7.60782 0.329084 7.78899 0.243695C7.97035 0.15838 8.17988 0.145552 8.39719 0.195883Z" fill="var(--fill-0, #476587)"/>
<ellipse id="Ellipse 499" cx="14.3063" cy="18.9851" rx="14.3063" ry="16.3501" fill="var(--fill-0, white)"/>
</g>
</svg>
