<svg preserveAspectRatio="none" width="100%" height="100%" overflow="visible" style="display: block;" viewBox="0 0 20 20" fill="none" xmlns="http://www.w3.org/2000/svg">
<g id="Single-bed (&#229;&#141;&#149;&#228;&#186;&#186;&#229;&#186;&#138;)">
<path id="Vector" d="M3.33333 5C3.33333 4.30963 3.89298 3.75 4.58333 3.75H15.4167C16.107 3.75 16.6667 4.30963 16.6667 5V9.58333H3.33333V5Z" fill="var(--fill-0, #F5940C)" stroke="var(--stroke-0, #F5940C)" stroke-width="1.66667" stroke-linecap="round" stroke-linejoin="round"/>
<path id="Vector_2" d="M2.5 14.5833V16.25" stroke="var(--stroke-0, #F5940C)" stroke-width="1.66667" stroke-linecap="round" stroke-linejoin="round"/>
<path id="Vector_3" d="M17.5 14.5833V16.25" stroke="var(--stroke-0, #F5940C)" stroke-width="1.66667" stroke-linecap="round" stroke-linejoin="round"/>
<path id="Vector_4" opacity="0.5" d="M8.02083 7.08331L5.83333 7.08333C5.40185 7.08333 5 7.3382 5 8.16665V9.16665L8.75 9.16664V8.16664C8.75 7.33819 8.45232 7.08331 8.02083 7.08331Z" fill="var(--fill-0, white)" stroke="var(--stroke-0, white)" stroke-width="1.66667" stroke-linecap="round" stroke-linejoin="round"/>
<path id="Vector_5" opacity="0.5" d="M14.2705 7.08331H12.0833C11.6518 7.08331 11.25 7.33824 11.25 8.16669V9.16669H14.9996V8.16669C14.9996 7.33824 14.702 7.08331 14.2705 7.08331Z" fill="var(--fill-0, white)" stroke="var(--stroke-0, white)" stroke-width="1.66667" stroke-linecap="round" stroke-linejoin="round"/>
<path id="Vector_6" d="M1.66667 10.8333C1.66667 10.143 2.22631 9.58333 2.91667 9.58333H17.0833C17.7737 9.58333 18.3333 10.143 18.3333 10.8333V14.5833H1.66667V10.8333Z" fill="var(--fill-0, #F5940C)" stroke="var(--stroke-0, #F5940C)" stroke-width="1.66667" stroke-linecap="round" stroke-linejoin="round"/>
</g>
</svg>
