<svg preserveAspectRatio="none" width="100%" height="100%" overflow="visible" style="display: block;" viewBox="0 0 20 20" fill="none" xmlns="http://www.w3.org/2000/svg">
<g id="High-heeled-shoes (&#233;&#171;&#152;&#232;&#183;&#159;&#233;&#158;&#139;)">
<path id="Vector" d="M12.1595 8.33333C13.0267 6.27233 15.146 4.44446 16.25 3.33333C16.71 3.61111 18.3333 4.41821 18.3333 6.25C18.3333 7.91667 17.7273 10.213 17.0833 10.5833C17.0833 10.5833 15.4919 11.5561 14.5886 12.3296C13.6951 13.0948 13.1919 13.3463 12.4997 14.5L12.3041 14.9239C11.8137 15.9863 10.7503 16.6667 9.58019 16.6667H2.31313C1.9561 16.6667 1.66667 16.3772 1.66667 16.0202C1.66667 15.391 2.00523 14.8051 2.51316 14.4338C3.49726 13.7144 4.90646 12.5652 5.99879 11.7305C6.60241 11.2692 7.40579 11.2982 8.14796 11.4604C10.3326 11.9379 11.5567 9.76609 12.1595 8.33333Z" fill="var(--fill-0, #A62CCE)" stroke="var(--stroke-0, #A62CCE)" stroke-width="1.66667" stroke-linecap="round" stroke-linejoin="round"/>
<path id="Rectangle 100" d="M15 9.5C15 9.22386 15.2239 9 15.5 9H17.5C17.7761 9 18 9.22386 18 9.5V17C18 17.2761 17.7761 17.5 17.5 17.5H15.5C15.2239 17.5 15 17.2761 15 17V9.5Z" fill="var(--fill-0, #A62CCE)" fill-opacity="0.59"/>
</g>
</svg>
